<?xml version="1.0" standalone="no"?>
<!DOCTYPE svg PUBLIC "-//W3C//DTD SVG 20010904//EN"
 "http://www.w3.org/TR/2001/REC-SVG-20010904/DTD/svg10.dtd">
<svg version="1.0" xmlns="http://www.w3.org/2000/svg"
 width="192.000000pt" height="192.000000pt" viewBox="0 0 192.000000 192.000000"
 preserveAspectRatio="xMidYMid meet">
<metadata>
Created by potrace 1.11, written by Peter Selinger 2001-2013
</metadata>
<g transform="translate(0.000000,192.000000) scale(0.100000,-0.100000)"
fill="#000000" stroke="none">
<path d="M558 1468 c-17 -25 -558 -1115 -558 -1123 0 -18 30 -5 410 172 41 20
93 43 115 53 22 10 76 35 120 56 44 21 82 38 85 39 5 1 47 20 208 97 97 45
148 69 162 73 3 1 46 21 95 44 101 48 197 93 205 96 3 1 34 15 70 32 36 17
139 65 230 107 91 42 175 82 187 89 27 15 28 33 2 30 -16 -2 -502 -176 -559
-200 -8 -3 -22 -7 -30 -9 -8 -2 -23 -7 -35 -13 -61 -29 -360 -130 -366 -124
-9 11 -77 139 -269 508 -51 99 -54 101 -72 73z m79 -512 l62 -124 -87 -32
c-48 -18 -93 -37 -99 -43 -7 -5 -13 -7 -13 -3 0 4 -14 -1 -31 -9 -17 -9 -34
-15 -39 -13 -9 3 130 347 140 348 3 0 33 -56 67 -124z"/>
<path d="M928 558 c-63 -32 -78 -45 -78 -63 0 -13 6 -25 13 -27 17 -5 226 -2
232 4 10 10 -59 128 -74 127 -9 0 -51 -18 -93 -41z"/>
</g>
</svg>
